<?xml version="1.0" encoding="utf-8"?>
<!-- Generator: Adobe Illustrator 23.0.0, SVG Export Plug-In . SVG Version: 6.00 Build 0)  -->
<svg version="1.1" id="Layer_1" xmlns="http://www.w3.org/2000/svg" xmlns:xlink="http://www.w3.org/1999/xlink" x="0px" y="0px"
	 viewBox="0 0 399.2 349" style="enable-background:new 0 0 399.2 349;" xml:space="preserve">
<style type="text/css">
	.st0{fill:#187191;}
</style>
<title>hearbeat(line)</title>
<g>
	<g>
		<path class="st0" d="M199.9,349c-5.2,0-10.7-1.8-15.8-6.7c-8.6-6.6-120.8-93.1-162.2-151.3c0,0,0-0.1-0.1-0.1
			c-0.5-0.7-11.3-16.6-17.6-41.1C-4,117.1-0.2,84.8,15.4,56.2c0.9-1.8,7.7-14.9,21.2-28C55.7,9.8,79.4,0.1,105.1,0.1
			c39.2,0,71.7,18.1,94.7,52.6c3.9-6.1,9.5-13.8,17.1-21.5c21.3-21.7,47.8-32.4,76.6-31.1c32,1.5,55.6,18.4,69.8,32.4
			c15.1,14.9,24.9,31.7,27.1,39c0.2,0.5,0.5,1.5,0.9,2.5c3,8.3,9.9,27.8,7.6,54.1c-2.9,32.5-18.8,64-47.2,93.7
			c-0.1,0.1-0.3,0.3-0.4,0.4l-134,120C213.2,345.7,206.8,349,199.9,349z M34.2,182.3c40.9,57.4,158.2,147.4,159.4,148.3
			c0.3,0.2,0.5,0.4,0.7,0.7c5.2,5.2,10.6,1.5,12.7-0.3l133.8-119.8c40.2-42.1,52.4-86.6,36.1-132.2c-0.5-1.3-0.8-2.4-1.1-3.3
			c-1.1-3.5-8.8-18.4-23.2-32.6C340.4,31,320,16.4,292.7,15.1c-59.2-2.7-85.5,55-85.8,55.6c-1.2,2.6-3.7,4.3-6.5,4.4
			c-2.8,0.1-5.5-1.4-6.9-3.9c-20.7-37.3-50.5-56.1-88.4-56.1c-21.9,0-41.3,7.9-57.7,23.5C34.9,50.6,28.9,62.7,28.8,62.9
			c-0.1,0.1-0.1,0.2-0.2,0.3c-13.9,25.5-17.3,53.2-9.9,82.3C24.1,167,33.7,181.5,34.2,182.3z"/>
	</g>
	<g>
		<path class="st0" d="M224.1,203.6c-2.8,0-5.5-1.5-6.9-3.9l-16.4-27.8l-18,28.1c-1.5,2.4-4.2,3.8-7.1,3.7c-2.8-0.1-5.4-1.8-6.7-4.3
			l-37-70.6l-16.9,31.6c-1.4,2.6-4.1,4.2-7.1,4.2h-92c-4.4,0-8-3.6-8-8s3.6-8,8-8h87.2l21.7-40.8c1.4-2.6,4.1-4.3,7.1-4.2
			c3,0,5.7,1.7,7.1,4.3l37.6,71.8l17.6-27.4c1.5-2.3,4.1-3.8,6.9-3.7c2.8,0.1,5.3,1.5,6.7,3.9l15.9,26.9l39.2-71.7
			c1.4-2.6,4.2-4.2,7.2-4.2c3,0.1,5.7,1.8,7,4.4l18.8,37.6h87.1c4.4,0,8,3.6,8,8s-3.6,8-8,8h-92c-3,0-5.8-1.7-7.2-4.4l-14.2-28.3
			l-38.7,70.6c-1.4,2.5-4,4.1-6.9,4.2C224.2,203.6,224.1,203.6,224.1,203.6z"/>
	</g>
</g>
</svg>
